<svg id="Layer_1" data-name="Layer 1" xmlns="http://www.w3.org/2000/svg" viewBox="0 0 99.33 50.86" preserveAspectRatio="none slice"><path fill="#e5e5e5" d="M23.24 0L0 5.38v41.47l23.24 3.96h.08V0h-.08z"/><path fill="#f2f2f2" d="M99.33 4.46L23.32 0v50.81l76.01-3V4.46z"/><path fill="#e6e6e5" d="M23.24 0L0 5.38v41.47l23.24 3.96h.08V0h-.08z"/><path d="M12.85 26.07c-.29 0-.5.46-.5 1s.25 1 .5 1 .5-.46.5-1-.17-1-.5-1z" transform="translate(-.33 -.28)" fill="none"/><path d="M11.93 37.75a21.36 21.36 0 01-11.6-4.67v14.05c7.76 1.29 15.56 2.63 23.32 3.92V32.74c-3.5 2.71-7.13 5.26-11.72 5.01z" transform="translate(-.33 -.28)" fill="#ef4223"/><path d="M14.52 16.26a3.31 3.31 0 00.13-2.67c-.17-.42-.46-.63-.71-.54-.63.08-.83 1-1.59 1.46a.35.35 0 00-.08.42 4.67 4.67 0 001.17 1.63c.33.37.74.29 1.08-.3z" transform="translate(-.33 -.28)" fill="#ef4223"/><path d="M13.18 17.06a5.85 5.85 0 01-1.25-.63c-.08-.13-.25 0-.17.25a19.26 19.26 0 00.42 3c.13.71.5 1.17.92 1.13s1-1 .92-2-.34-1.55-.84-1.75z" transform="translate(-.33 -.28)" fill="#ef4223"/><path d="M7.93 17.31a7 7 0 001.17-1.92c.08-.17 0-.38-.08-.38-.71-.29-1-1-1.59-.92-.29 0-.5.29-.71.75a2.79 2.79 0 00.13 2.46.63.63 0 001.08.01z" transform="translate(-.33 -.28)" fill="#ef4223"/><path d="M8.26 21.39c.42 0 .79-.54.92-1.25a15.7 15.7 0 00.42-3.09c0-.25-.08-.38-.17-.17a5.59 5.59 0 01-1.25.92 2 2 0 00-.83 1.88c-.01.96.37 1.71.91 1.71z" transform="translate(-.33 -.28)" fill="#ef4223"/><path d="M10.68 8.84c.83-.17 1.54 1 1.54 2.63a10.23 10.23 0 01-.08 1.13.53.53 0 000 .25.45.45 0 00.38 0 2.92 2.92 0 001.13-.67c.29-.17.5-.29.75-.08s.29-.13.25-.38c-.63-3-2-5-3.92-4.63s-3.38 2.92-3.92 6c0 .29.08.42.25.29a.58.58 0 01.75-.13 2.62 2.62 0 001.19.26 1.07 1.07 0 00.38-.17v-.25A8.2 8.2 0 019.3 12c-.16-1.58.55-3 1.38-3.16z" transform="translate(-.33 -.28)" fill="#ef4223"/><path d="M10.05 13.8a.67.67 0 00.33-.5c-.08.08-.17 0-.17-.08a.5.5 0 01.08-.33.15.15 0 01.08 0 .15.15 0 000-.08.17.17 0 00-.17-.08c-.17 0-.33.33-.33.71s.02.36.18.36z" transform="translate(-.33 -.28)" fill="#ef4223"/><path d="M11.56 13.09c-.08.08-.17 0-.17-.08s0-.29.08-.33a.15.15 0 01.08 0 .15.15 0 000-.08.17.17 0 00-.17-.08c-.17 0-.33.33-.33.71s.13.63.33.63a3.61 3.61 0 00.18-.77z" transform="translate(-.33 -.28)" fill="#ef4223"/><path d="M11.26 14.55c0-.13 0-.33-.08-.25a1.62 1.62 0 01-.46.25.61.61 0 01-.46-.08c-.13 0-.13.13-.08.25.08.33.33.54.54.5s.38-.29.54-.67z" transform="translate(-.33 -.28)" fill="#ef4223"/><path d="M9.47 20.89c0 1.29.5 2.25 1.17 2.21s1.17-1.13 1.17-2.42a5.11 5.11 0 00-.08-.79c-.13-.67-.75-1.59-1-2.42 0-.13-.08-.17-.13-.17s-.08.08-.13.17c-.17.88-.83 2-1 2.67a4.51 4.51 0 010 .75z" transform="translate(-.33 -.28)" fill="#ef4223"/><path d="M9.14 30.2h-.3s-.08.08-.08.17v3c0 .08 0 .17.08.17h.29s.08-.08.08-.17v-3.05s-.03-.12-.07-.12z" transform="translate(-.33 -.28)" fill="#ef4223"/><path d="M9.59 33.62h.29s.08 0 .08-.13v-1.87c.25.79.38 1.17.67 2a.15.15 0 000 .08H11s.08 0 .08-.13v-3.21c0-.08 0-.13-.08-.13h-.29s-.08.08-.08.13v1.79l-.13-.38-.28-.77-.13-.38c0-.08 0-.13-.08-.21s0-.17-.13-.17h-.33a.25.25 0 000 .17v3.09s0 .12.04.12z" transform="translate(-.33 -.28)" fill="#ef4223"/><path d="M12.72 33.53a16.25 16.25 0 01-.5-1.92c.17-.46.29-.71.46-1.17v-.25h-.33c-.17.46-.29.75-.46 1.21v-1.08c0-.08 0-.13-.08-.13h-.29s-.08.08-.08.13v3.17c0 .08 0 .13.08.13h.29s.08-.08.08-.13v-1l.13-.38c.13.54.25.83.38 1.46a.09.09 0 00.08.08h.33c-.09.09 0-.03-.09-.12z" transform="translate(-.33 -.28)" fill="#ef4223"/><path d="M8.22 29.11c.42 0 .75-.46.75-1.29v-2c0-.08 0-.13-.08-.13h-.3s-.08.08-.08.13v2c0 .33-.13.46-.29.46s-.29-.13-.29-.46v-2c0-.08 0-.13-.08-.13h-.3s-.08.08-.08.13v2c.04.87.37 1.29.75 1.29z" transform="translate(-.33 -.28)" fill="#ef4223"/><path d="M9.85 29.07c.42 0 .67-.54.67-1.17a1.07 1.07 0 00-.5-1c-.17-.08-.33-.13-.33-.38s0-.29.17-.29.17 0 .29.17a.08.08 0 00.13 0 .84.84 0 00.17-.33.26.26 0 000-.25.59.59 0 00-.63-.38c-.38 0-.67.5-.67 1.08a1 1 0 00.5 1c.17.08.33.13.33.38s-.08.33-.25.33a.45.45 0 01-.33-.25s-.08-.08-.08 0a2 2 0 01-.25.38.26.26 0 000 .25c.27.21.44.46.78.46z" transform="translate(-.33 -.28)" fill="#ef4223"/><path d="M12.85 25.27c-.5 0-.92.88-.92 1.88s.42 1.79.92 1.79.92-.83.92-1.88-.38-1.83-.92-1.79zm0 2.84c-.29 0-.5-.42-.5-1s.25-1 .5-1 .5.42.5 1-.17.96-.5 1z" transform="translate(-.33 -.28)" fill="#ef4223"/><path d="M15.69 25.11h-.33v.08c-.13.46-.25.71-.42 1.17a11.57 11.57 0 00-.42-1.08H14s-.08.08-.08.17v3.3c0 .08 0 .13.08.13h.29s.08-.08.08-.17v-2c.13.42.25.63.38 1a.09.09 0 00.08.08l.08-.08c.13-.42.25-.63.38-1v2c0 .08 0 .13.08.13h.29s.08-.08.08-.17v-3.4s-.01-.16-.05-.16z" transform="translate(-.33 -.28)" fill="#ef4223"/><path d="M6.51 29.15c.38 0 .67-.38.79-.83a.28.28 0 000-.25 2.12 2.12 0 00-.3-.25h-.08c-.08.25-.25.42-.42.42s-.5-.38-.5-.84.17-.92.5-1c.17 0 .29.13.38.33 0 0 .08.08.08 0a1.56 1.56 0 01.25-.29v-.25c-.17-.42-.46-.67-.75-.67-.54 0-.92.79-.92 1.79s.46 1.89.97 1.84z" transform="translate(-.33 -.28)" fill="#ef4223"/><path d="M11.1 28.95h.29s.08-.08.08-.13v-2.59h.38s.08-.08.08-.13v-.5c0-.08 0-.13-.08-.13-.46 0-.71 0-1.13.08 0 0-.08.08-.08.13v.46c0 .08 0 .13.08.13h.38v2.54s-.04.14 0 .14z" transform="translate(-.33 -.28)" fill="#ef4223"/><path d="M23.65 51.1C15.89 49.8 8.09 48.47.33 47.18V5.67C8.09 3.87 15.89 2.08 23.65.33z" transform="translate(-.33 -.28)" fill="none"/><path d="M99.67 48.14l-76 3V.37q38 2.19 76 4.42z" transform="translate(-.33 -.28)" fill="none"/><path d="M77.89 39.29c-.21 0-.42.21-.42.63s.13.58.42.58a.58.58 0 00.42-.63c0-.33-.17-.58-.42-.58z" transform="translate(-.33 -.28)" fill="none"/><path d="M80.89 39.17a.64.64 0 00-.5.63c0 .38.21.63.5.63a.56.56 0 00.5-.67.53.53 0 00-.5-.59z" transform="translate(-.33 -.28)" fill="none"/><path d="M89.4 39c-.25 0-.42.21-.42.58s.21.58.46.58.38-.17.38-.63-.17-.53-.42-.53z" transform="translate(-.33 -.28)" fill="none"/><path d="M41.18 39.58a.56.56 0 00.5-.67.57.57 0 00-.5-.63c-.29 0-.5.29-.5.67a.57.57 0 00.5.63z" transform="translate(-.33 -.28)" fill="none"/><path d="M70.92 39.38c-.21 0-.42.17-.42.63s.13.63.42.63.42-.25.42-.63-.17-.63-.42-.63z" transform="translate(-.33 -.28)" fill="none"/><path d="M82.56 39.17c-.21 0-.42.21-.42.63s.13.58.42.58.42-.21.42-.63-.17-.58-.42-.58z" transform="translate(-.33 -.28)" fill="none"/><path d="M91 39a.49.49 0 00-.46.46h.83c-.01-.34-.17-.46-.37-.46z" transform="translate(-.33 -.28)" fill="none"/><path d="M84.73 39.12a.49.49 0 00-.46.46h.83c.01-.33-.16-.46-.37-.46z" transform="translate(-.33 -.28)" fill="none"/><path d="M75.51 39.33c-.25 0-.42.21-.42.58s.21.58.46.58.38-.17.38-.58-.17-.58-.42-.58z" transform="translate(-.33 -.28)" fill="none"/><path d="M56.32 40.29c0 .38.21.63.5.63a.54.54 0 00.5-.63.51.51 0 10-1 0z" transform="translate(-.33 -.28)" fill="none"/><path d="M95 38.92a.49.49 0 00-.46.46h.83c-.04-.38-.21-.46-.37-.46z" transform="translate(-.33 -.28)" fill="none"/><path d="M79.39 39.21a.49.49 0 00-.46.46h.83c.01-.34-.16-.46-.37-.46z" transform="translate(-.33 -.28)" fill="none"/><path d="M68.75 14.05c-4.63 0-8.05 4-12.22 5.42a1.18 1.18 0 00-.67 2 37 37 0 009 8.68 6.64 6.64 0 008.64-.79 9.52 9.52 0 00.92-12.1 6.93 6.93 0 00-5.67-3.21z" transform="translate(-.33 -.28)" fill="#ef4223"/><path d="M58.74 49.72c2.5-.08 3.8-.13 6.3-.25a9 9 0 003.5-3.84c-4.42.13-8.84.29-13.27.42a7.27 7.27 0 003.47 3.67z" transform="translate(-.33 -.28)" fill="#ef4223"/><path d="M66.25 34a9.85 9.85 0 00-3.46-1.63c-3.46-1.34-6.22-1.46-9.85-3.71-.88-.71-1.63-.13-1.59 1.08.08 1.5.21 3 .42 4.38z" transform="translate(-.33 -.28)" fill="#ef4223"/><path d="M31 21a1.28 1.28 0 00-.67-2.09 23.84 23.84 0 01-6.63-4.17v14.12A38.67 38.67 0 0031 21z" transform="translate(-.33 -.28)" fill="#ef4223"/><path d="M23.65 51.06c1.79-.08 2.71-.13 4.55-.17a9.23 9.23 0 003.42-4.09c-3.17.08-4.8.17-8 .25z" transform="translate(-.33 -.28)" fill="#ef4223"/><path d="M35.5 29.74c0-1.25-.71-1.88-1.59-1.13-3.63 2.34-6.38 2.5-9.85 3.92l-.42.13v1.67l11.43-.08c.22-1.42.35-2.97.43-4.51z" transform="translate(-.33 -.28)" fill="#ef4223"/><path d="M32.08 10.3c.38-.17.38-.63.25-1.08a19 19 0 01-.88-5.63 19.4 19.4 0 01.21-2.76L24.28.41h-.63V9.5a19.88 19.88 0 005.55 1.33 7.33 7.33 0 002.88-.53z" transform="translate(-.33 -.28)" fill="#ef4223"/><path d="M54.78 11.21a7.4 7.4 0 002.88.71c3.34.21 8.47-1.67 8.89-1.75 2.13-.58 4-.79 5.88.33 1 .63 2.13-.25 1.71-1.54a45.76 45.76 0 00-2.26-5.76c-5.59-.33-11.14-.67-16.73-1a18.6 18.6 0 01.21 2.63 15.27 15.27 0 01-.88 5.26c-.08.46-.08.91.3 1.12z" transform="translate(-.33 -.28)" fill="#ef4223"/><path d="M39 13.72a2.6 2.6 0 002.5-2.21.44.44 0 000-.33.34.34 0 00-.25-.17c-.13 0-.25.13-.38.17a1.11 1.11 0 01-1.54-.79 1.41 1.41 0 01.58-1.63 3.29 3.29 0 01.54-.13.34.34 0 00.25-.38.47.47 0 00-.13-.33A2.41 2.41 0 0039 7.21c-1.46-.08-2.63 1.33-2.63 3.17A3.13 3.13 0 0039 13.72z" transform="translate(-.33 -.28)" fill="#ef4223"/><path d="M48 14a2.6 2.6 0 002.5-2.17.44.44 0 000-.33.34.34 0 00-.25-.17.75.75 0 00-.38.17 1.11 1.11 0 01-1.54-.79 1.41 1.41 0 01.58-1.63A3.29 3.29 0 0149.4 9a.34.34 0 00.25-.38.32.32 0 00-.13-.29 2.63 2.63 0 00-1.59-.71c-1.46-.08-2.63 1.34-2.63 3.09A3.1 3.1 0 0048 14z" transform="translate(-.33 -.28)" fill="#ef4223"/><path d="M39.09 18.47a5.1 5.1 0 004.34 3.09 4.89 4.89 0 004.34-2.88c.29-.58.17-1.59-.79-1.17a9.15 9.15 0 01-3.55.75 8.59 8.59 0 01-3.55-.92c-.96-.49-1.08.51-.79 1.13z" transform="translate(-.33 -.28)" fill="#ef4223"/><path d="M34.63 46.68a12.39 12.39 0 00-.46 3.17 5.05 5.05 0 000 .79c6.17-.25 12.31-.46 18.48-.71v-.79a12.41 12.41 0 00-.42-3c-5.8.16-11.72.37-17.6.54z" transform="translate(-.33 -.28)" fill="#ef4223"/><path d="M44.39 32.78c-.21-.67-.58-1-1-1s-.79.33-1 1c-.17.46-.42 1-.63 1.42h3.25q-.31-.67-.62-1.42z" transform="translate(-.33 -.28)" fill="#ef4223"/><path d="M47.48 37.16v6.22a.09.09 0 00.08.08s.08 0 .08-.13v-6.21s0-.13-.08-.08-.08.04-.08.12z" transform="translate(-.33 -.28)" fill="#f0525a"/><path d="M51.52 41.25a.91.91 0 00.71-.38.58.58 0 01-.13-.17.92.92 0 01-.63.33c-.46 0-.75-.42-.75-1a.87.87 0 01.75-1 .92.92 0 01.58.25l.08-.17a.83.83 0 00-.67-.29c-.54 0-.92.5-.92 1.17a1.08 1.08 0 00.98 1.26z" transform="translate(-.33 -.28)" fill="#f0525a"/><path d="M53.53 40.33c0 .33-.21.67-.5.67s-.29-.21-.29-.46v-1h-.17v1c0 .42.13.63.46.63a.63.63 0 00.5-.46v.38h.17v-1.51h-.17z" transform="translate(-.33 -.28)" fill="#f0525a"/><path d="M54.28 40a.24.24 0 01.25-.25.5.5 0 01.33.13l.08-.17a.52.52 0 00-.42-.17.44.44 0 00-.46.46c0 .54.71.42.71.75 0 .17-.08.25-.25.25a.64.64 0 01-.42-.17L54 41a.66.66 0 00.5.21.46.46 0 00.46-.46c.04-.58-.68-.46-.68-.75z" transform="translate(-.33 -.28)" fill="#f0525a"/><path d="M55.4 40.54c0 .54.29.58.46.58h.08v-.21c-.17 0-.33 0-.33-.42v-.79h.33v-.17h-.33v-.46h-.21v.46h-.17v.17h.17z" transform="translate(-.33 -.28)" fill="#f0525a"/><path d="M56.11 40.29a.77.77 0 00.71.83.81.81 0 00.71-.88.75.75 0 00-.71-.79.79.79 0 00-.71.84zm1.21 0a.54.54 0 01-.5.63c-.29 0-.5-.25-.5-.63a.51.51 0 111 0z" transform="translate(-.33 -.28)" fill="#f0525a"/><path d="M59.87 41v-1c0-.42-.08-.67-.42-.63a.63.63 0 00-.5.42.38.38 0 00-.42-.38.63.63 0 00-.5.42v-.33h-.17v1.59H58v-1a.49.49 0 01.46-.46c.25 0 .29.21.29.46v1h.17v-.75a.53.53 0 010-.25c0-.25.21-.46.42-.46s.29.21.29.46v1z" transform="translate(-.33 -.28)" fill="#f0525a"/><path d="M61.54 41h.08v-.21c-.13 0-.33 0-.33-.38v-.79h.33v-.17h-.33V39h-.17v.46h-.17v.17h.17v.79c-.04.5.25.58.42.58z" transform="translate(-.33 -.28)" fill="#f0525a"/><path d="M62.7 40.17V40H62v.21z" transform="translate(-.33 -.28)" fill="#f0525a"/><path d="M63.58 40.75a.64.64 0 01-.42-.17s0 .08-.08.17a.66.66 0 00.5.21.46.46 0 00.42-.46c0-.5-.71-.38-.71-.75a.24.24 0 01.25-.25.5.5 0 01.33.13l.08-.17a.52.52 0 00-.42-.17.44.44 0 00-.46.46c0 .5.71.42.71.75a.24.24 0 01-.2.25z" transform="translate(-.33 -.28)" fill="#f0525a"/><path d="M65.54 41v-1c0-.46-.13-.67-.46-.67a.6.6 0 00-.54.42v-1h-.17V41h.17v-.75a.31.31 0 010-.21c.08-.25.25-.46.5-.46s.29.21.29.46v1z" transform="translate(-.33 -.28)" fill="#f0525a"/><path d="M66.17 38.71H66V39h.21z" transform="translate(-.33 -.28)" fill="#f0525a"/><path d="M66 40.88h.17v-1.55H66z" transform="translate(-.33 -.28)" fill="#f0525a"/><path d="M66.75 39.29h-.17v1.54h.17v-.67a.71.71 0 010-.29c0-.21.21-.42.38-.42h.08v-.21h-.08c-.21 0-.33.21-.42.46v-.42z" transform="translate(-.33 -.28)" fill="#f0525a"/><path d="M67.58 38.83v.46h-.17v.17h.17v.79c0 .5.29.58.46.58h.08v-.21c-.13 0-.33 0-.33-.38v-.79h.33v-.17h-.33v-.46z" transform="translate(-.33 -.28)" fill="#f0525a"/><path d="M68.54 39.67a.24.24 0 01.25-.25.5.5 0 01.33.13l.08-.17a.52.52 0 00-.42-.17.43.43 0 00-.46.42c0 .5.71.42.71.75s-.08.29-.25.29a.64.64 0 01-.42-.17s0 .08-.08.17a.66.66 0 00.5.21.46.46 0 00.46-.46c.01-.5-.7-.42-.7-.75z" transform="translate(-.33 -.28)" fill="#f0525a"/><path d="M70.92 39.21a.51.51 0 00-.46.29v-.88h-.16v2.17h.17v-.25a.51.51 0 00.46.29c.33 0 .58-.33.58-.83s-.21-.83-.59-.79zm0 1.42c-.29 0-.42-.29-.42-.63s.21-.63.42-.63.42.25.42.63-.21.63-.42.63z" transform="translate(-.33 -.28)" fill="#f0525a"/><path d="M72 39.63v-.42h-.17v1.54H72v-.67a.71.71 0 010-.29c0-.21.21-.42.38-.42h.08v-.21h-.08c-.12.05-.25.22-.38.47z" transform="translate(-.33 -.28)" fill="#f0525a"/><path d="M72.8 40.75h.2v-1.54h-.2z" transform="translate(-.33 -.28)" fill="#f0525a"/><path d="M72.8 38.83h.2v-.25h-.2z" transform="translate(-.33 -.28)" fill="#f0525a"/><path d="M74.13 39.12a.55.55 0 00-.54.42v-.33h-.17v1.54h.17V40a.38.38 0 010-.21.53.53 0 01.5-.46c.25 0 .29.21.29.46v.92h.17v-1c.04-.38-.08-.59-.42-.59z" transform="translate(-.33 -.28)" fill="#f0525a"/><path d="M75.93 39.29a.55.55 0 00-.46-.21c-.38 0-.58.33-.58.79s.25.79.58.79a.45.45 0 00.42-.29v.25a.45.45 0 01-.46.5.93.93 0 01-.38-.08l-.08.17a.84.84 0 00.46.13c.33 0 .63-.21.63-.71v-1.5h-.17a.32.32 0 01.04.16zm-.38 1.21c-.25 0-.46-.21-.46-.58s.17-.58.42-.58.42.13.42.58-.17.54-.38.58z" transform="translate(-.33 -.28)" fill="#f0525a"/><path d="M77.89 39.08a.51.51 0 00-.46.29v-.29h-.17v2.13h.17v-.83a.51.51 0 00.46.29c.33 0 .58-.33.58-.79s-.21-.88-.58-.8zm0 1.42c-.29 0-.42-.29-.42-.58s.21-.63.42-.63.42.25.42.58a.58.58 0 01-.42.63z" transform="translate(-.33 -.28)" fill="#f0525a"/><path d="M79.39 39c-.38 0-.67.29-.67.79a.73.73 0 00.71.79.78.78 0 00.5-.21s0-.08-.08-.17a.84.84 0 01-.42.21c-.29 0-.5-.21-.5-.58h1v-.13c.07-.37-.16-.7-.54-.7zm-.46.63a.49.49 0 01.46-.46c.21 0 .38.13.38.46z" transform="translate(-.33 -.28)" fill="#f0525a"/><path d="M80.89 39a.8.8 0 000 1.59.79.79 0 00.71-.83.71.71 0 00-.71-.76zm0 1.42c-.29 0-.5-.25-.5-.63a.64.64 0 01.5-.63.53.53 0 01.5.58.56.56 0 01-.5.68z" transform="translate(-.33 -.28)" fill="#f0525a"/><path d="M82.6 39a.51.51 0 00-.46.29V39H82v2.13h.17v-.83a.51.51 0 00.46.29c.33 0 .58-.33.58-.79s-.27-.8-.61-.8zm0 1.38c-.29 0-.42-.29-.42-.58s.21-.63.42-.63.42.21.42.58-.25.63-.46.63z" transform="translate(-.33 -.28)" fill="#f0525a"/><path d="M83.69 40.08v-1.71h-.17v1.75c0 .33.21.38.29.38h.08v-.17c-.12 0-.2-.04-.2-.25z" transform="translate(-.33 -.28)" fill="#f0525a"/><path d="M84.73 39c-.38 0-.67.29-.67.79a.67.67 0 00.71.75.78.78 0 00.5-.21s0-.08-.08-.17a.84.84 0 01-.42.21c-.29 0-.5-.21-.5-.58h1v-.13c.05-.41-.16-.74-.54-.66zm-.46.63a.49.49 0 01.46-.46c.21 0 .38.13.38.46z" transform="translate(-.33 -.28)" fill="#f0525a"/><path d="M86.61 39.88v-.75h.33V39h-.33v-.42h-.17V39h-.17v.17h.17v.75c0 .5.29.54.46.54h.1v-.17c-.22-.04-.39-.08-.39-.41z" transform="translate(-.33 -.28)" fill="#f0525a"/><path d="M89.82 39a.55.55 0 00-.46-.21c-.38 0-.58.33-.58.75s.25.75.58.75a.42.42 0 00.42-.25v.25a.42.42 0 01-.46.46.93.93 0 01-.38-.08l-.08.17a.84.84 0 00.46.13.6.6 0 00.63-.67v-1.43h-.17a.32.32 0 01.04.13zm-.38 1.17c-.25 0-.46-.21-.46-.58s.17-.58.42-.58.42.13.42.54-.17.62-.37.66z" transform="translate(-.33 -.28)" fill="#f0525a"/><path d="M91 38.83c-.38 0-.67.29-.67.79a.69.69 0 00.71.75.78.78 0 00.5-.21s0-.08-.08-.17a.84.84 0 01-.42.21c-.29 0-.5-.21-.5-.58h1v-.08c.03-.42-.18-.71-.54-.71zm-.5.63A.49.49 0 0191 39c.21 0 .38.13.38.46z" transform="translate(-.33 -.28)" fill="#f0525a"/><path d="M92.16 39.75V39h.33v-.17h-.33v-.42H92v.42h-.17V39H92v.75c0 .5.29.54.46.54h.08v-.17c-.17.05-.38.01-.38-.37z" transform="translate(-.33 -.28)" fill="#f0525a"/><path d="M93.53 38.79a.63.63 0 00-.54.38v-.92h-.17v2H93v-.71a.38.38 0 010-.21.53.53 0 01.5-.42c.25 0 .29.21.29.42v.88H94v-.92c0-.29-.17-.5-.47-.5z" transform="translate(-.33 -.28)" fill="#f0525a"/><path d="M95 38.75c-.38 0-.67.29-.67.79a.69.69 0 00.71.75.78.78 0 00.5-.21s0-.08-.08-.17a.64.64 0 01-.42.17c-.29 0-.5-.21-.5-.58h1v-.08c-.05-.42-.21-.67-.54-.67zm-.46.63a.49.49 0 01.46-.46c.21 0 .38.13.38.46z" transform="translate(-.33 -.28)" fill="#f0525a"/><path d="M96 39.17v-.38h-.17v1.46H96v-.63a.71.71 0 010-.29.44.44 0 01.38-.38h.08v-.21h-.08a.45.45 0 00-.38.43z" transform="translate(-.33 -.28)" fill="#f0525a"/><path d="M96.7 40v.25h.21V40z" transform="translate(-.33 -.28)" fill="#f0525a"/><path d="M36.5 40.17a.78.78 0 00.75-.88v-1.38a.09.09 0 00-.08-.08h-.29a.09.09 0 00-.08.08v1.38a.32.32 0 01-.29.33.26.26 0 01-.29-.29V38a.09.09 0 00-.08-.08h-.29a.09.09 0 00-.08.08v1.38c-.02.5.32.83.73.79z" transform="translate(-.33 -.28)" fill="#ef4223"/><path d="M39.47 40.08h.25a.09.09 0 00.08-.08v-1.67h.38a.09.09 0 00.08-.08v-.33a.09.09 0 00-.08-.08H39c-.08 0-.08 0-.08.08v.33a.09.09 0 00.08.08h.38V40a.09.09 0 00.09.08z" transform="translate(-.33 -.28)" fill="#ef4223"/><path d="M34.29 41s-.08 0-.08.13v2c0 .08 0 .13.08.13h.25s.08 0 .08-.13v-2c0-.08 0-.13-.08-.13z" transform="translate(-.33 -.28)" fill="#ef4223"/><path d="M38.8 39.46a.71.71 0 00-.54-.75c-.17-.08-.33-.13-.33-.25s.08-.17.21-.17a.36.36 0 01.25.13.08.08 0 00.13 0l.21-.21a.13.13 0 000-.17.6.6 0 00-.58-.25.66.66 0 00-.63.71.65.65 0 00.54.67c.17 0 .33.13.33.25a.2.2 0 01-.21.21.38.38 0 01-.33-.17.08.08 0 00-.13 0l-.25.25a.13.13 0 000 .17.94.94 0 00.67.33.7.7 0 00.66-.75z" transform="translate(-.33 -.28)" fill="#ef4223"/><path d="M31.33 41.88a4.89 4.89 0 01-1-.38c-.08-.13-.17-.08-.13.08a8.16 8.16 0 00.33 1.63.83.83 0 00.75.63 1 1 0 00.75-1 .87.87 0 00-.7-.96z" transform="translate(-.33 -.28)" fill="#ef4223"/><path d="M30.54 39.54h.29a3.75 3.75 0 00.92-.25.58.58 0 01.58 0c.13.08.21 0 .17-.17a3.43 3.43 0 00-3.17-2.75 3.52 3.52 0 00-3.09 2.88c0 .13.08.25.17.17a.58.58 0 01.58 0 2.69 2.69 0 00.92.21.4.4 0 00.29-.08v-.13a2.46 2.46 0 01-.08-.58 1.42 1.42 0 011.21-1.54 1.38 1.38 0 011.21 1.5 2.46 2.46 0 01-.08.58.15.15 0 00.08.16z" transform="translate(-.33 -.28)" fill="#ef4223"/><path d="M29 39.38h-.13c-.13 0-.25.17-.25.33s.13.33.25.33.21-.13.25-.25h-.08c-.08 0-.13 0-.17-.08a.25.25 0 010-.17z" transform="translate(-.33 -.28)" fill="#ef4223"/><path d="M28.91 40.42a.51.51 0 00.46.29c.21 0 .33-.13.46-.33s0-.17-.08-.13a1.22 1.22 0 01-.38.08.59.59 0 01-.38 0c-.08-.08-.12 0-.08.09z" transform="translate(-.33 -.28)" fill="#ef4223"/><path d="M29.37 44.92a1.19 1.19 0 001-1.29 1.48 1.48 0 00-.08-.42c-.13-.33-.63-.88-.79-1.34 0-.08 0-.08-.08-.08s-.08 0-.08.13c-.17.46-.67 1-.79 1.38a1.48 1.48 0 00-.08.42 1.1 1.1 0 00.9 1.2z" transform="translate(-.33 -.28)" fill="#ef4223"/><path d="M27.45 43.88a.83.83 0 00.75-.67 5.85 5.85 0 00.33-1.63c0-.13-.08-.21-.17-.13a4 4 0 01-1 .42 1 1 0 00-.67 1c.01.55.31 1.01.76 1.01z" transform="translate(-.33 -.28)" fill="#ef4223"/><path d="M28.08 40.71a.13.13 0 00-.08-.21c-.58-.21-.79-.63-1.25-.63a.78.78 0 00-.58.33 1.12 1.12 0 00.08 1.38.66.66 0 00.92.08 4.93 4.93 0 00.91-.95z" transform="translate(-.33 -.28)" fill="#ef4223"/><path d="M30 39.58c-.08 0-.13 0-.17-.08a.25.25 0 010-.17.18.18 0 00-.13 0c-.17 0-.25.17-.25.33s.13.33.25.33.21-.13.25-.25H30z" transform="translate(-.33 -.28)" fill="#ef4223"/><path d="M31.91 39.79c-.42 0-.63.46-1.21.67a.15.15 0 00-.08.21 4.12 4.12 0 00.92.92.61.61 0 00.88-.13 1.07 1.07 0 00.08-1.34.78.78 0 00-.59-.33z" transform="translate(-.33 -.28)" fill="#ef4223"/><path d="M35.59 39.63a.08.08 0 000-.13 1.3 1.3 0 01-.25-.17h-.13a.45.45 0 01-.42.29.57.57 0 01-.5-.63c0-.38.21-.67.5-.67a.4.4 0 01.38.25.15.15 0 00.13 0c.08-.08.17-.13.25-.21s0-.08 0-.17a.89.89 0 00-.79-.46 1.13 1.13 0 00-.93 1.27c0 .67.38 1.17 1 1.17a.9.9 0 00.76-.54z" transform="translate(-.33 -.28)" fill="#ef4223"/><path d="M43.64 40h.29a.09.09 0 00.08-.08v-2.17h-.33-.08l-.42.71h-.08l-.42-.71H42.27a.09.09 0 00-.08.08v2.09a.09.09 0 00.08.08h.29a.09.09 0 00.08-.08v-1.3c.17.25.21.38.38.63h.16c.17-.25.21-.38.38-.67v1.29a.09.09 0 00.08.13z" transform="translate(-.33 -.28)" fill="#ef4223"/><path d="M41.18 40.08a1.19 1.19 0 10-1-1.17 1.06 1.06 0 001 1.17zm0-1.79a.57.57 0 01.5.63.56.56 0 01-.5.67.57.57 0 01-.5-.63c0-.38.2-.67.5-.67z" transform="translate(-.33 -.28)" fill="#ef4223"/><path d="M36.13 41a.09.09 0 00-.13 0v1.17c-.25-.5-.38-.71-.63-1.21H35a.09.09 0 00-.08.08v2.09a.09.09 0 00.08.08h.29s.08 0 .08-.13v-1.24c.25.5.38.75.63 1.29h.08a.92.92 0 00.33 0 .09.09 0 00.08-.08V41a.09.09 0 00-.08-.08z" transform="translate(-.33 -.28)" fill="#ef4223"/><path d="M37.13 40.92h-.29a.09.09 0 00-.08.08v2.09q.06.13.13.13h.29a.09.09 0 00.08-.08v-.64a.87.87 0 01.17-.25 8.49 8.49 0 01.38.92h.37s.08-.08.08-.17c-.21-.5-.33-.75-.54-1.25.17-.29.29-.46.46-.75 0-.08 0-.17-.08-.17h-.33-.08a7.75 7.75 0 00-.46.79V41a.09.09 0 00-.1-.08z" transform="translate(-.33 -.28)" fill="#ef4223"/><path d="M87.86 38.87a.8.8 0 10.71.79.75.75 0 00-.71-.79zm0 1.42a.63.63 0 11.52-.65.59.59 0 01-.47.65z" transform="translate(-.33 -.28)" fill="#f0525a"/></svg>