<svg xmlns="http://www.w3.org/2000/svg" viewBox="0 0 490 182"><path d="M150.6 111.6c-1.7-.8-14-7.4-24.9-20.1-1.9-2.1-.5-4.1 1.9-4.6 15.6-4.3 21.2-13.8 33.9-13.6 6-.1 11.4 2.2 15.6 7.2 7.4 8.8 6.2 21.8-2.6 29.2-6.9 5.8-16.6 6.3-23.9 1.9zm-28 34.1c3.2 8.2 11.3 13.8 20.5 13.5 11.7-.4 20.9-10.2 20.5-21.9-.4-10.6-7.4-17.8-18.6-20.3-9.6-3.1-17.2-3.5-27.3-8.7-2.4-1.7-4.6-.3-4.4 2.5.6 17.1 8.5 33.1 9.3 34.9zm-90.8-34.1c1.7-.8 14-7.4 24.9-20.1 1.9-2.1.5-4.1-1.9-4.6-15.6-4.3-21.2-13.8-33.9-13.6-6-.1-11.4 2.2-15.6 7.2-7.4 8.8-6.2 21.8 2.6 29.2 6.9 5.8 16.6 6.3 23.9 1.9zm28 34.1c.8-1.7 8.6-17.8 9.4-34.9.2-2.8-1.9-4.2-4.4-2.5-10.1 5.2-17.7 5.5-27.3 8.7-11.3 2.6-18.3 9.8-18.6 20.3-.4 11.7 8.8 21.5 20.5 21.9 9.2.3 17.3-5.3 20.4-13.5zM124.3 53c0 4.4-.8 8.5-2.4 12.3-.4 1-.3 2 .7 2.4 1.4.6 3.9 1.3 8 1.4 9.4 0 23.4-4.8 24.6-5 5.9-1.6 11-2.3 16.3.2 2.9 1.4 5.9-.8 4.8-3.9C163.6 25.9 132.5.3 91.1.3 49.7.3 18.6 25.9 5.9 60.4c-1.1 3.1 1.9 5.3 4.8 3.9 5.3-2.5 10.4-1.8 16.3-.2 1.2.2 15.2 5 24.6 5 4.1-.1 6.6-.8 8-1.4 1-.4 1.1-1.4.7-2.4-1.5-3.8-2.4-8-2.4-12.3 0-18.2 14.8-32.9 33.1-32.9 18.5 0 33.3 14.7 33.3 32.9zM79.7 67.3c-.4-1-.2-2.9 1.7-3.8.5-.2 1.1-.3 1.5-.3.4-.1.7-.4.7-.9 0-.3-.1-.5-.4-.7-1.2-.9-2.7-1.5-4.4-1.5-4 0-7.3 3.3-7.3 7.3s3.3 7.3 7.3 7.3c3.3 0 6.1-2.2 7-5.2.1-.3 0-.6-.1-.8-.2-.2-.4-.4-.7-.4-.3 0-.7.3-1.1.4-2.3 1.3-3.8-.4-4.2-1.4zm24.9 0c-.4-1-.2-2.9 1.7-3.8.5-.2 1.1-.3 1.5-.3.4-.1.7-.4.7-.9 0-.3-.1-.5-.4-.7-1.2-.9-2.7-1.5-4.4-1.5-4 0-7.3 3.3-7.3 7.3s3.3 7.3 7.3 7.3c3.3 0 6.1-2.2 7-5.2.1-.3 0-.6-.1-.8-.2-.2-.4-.4-.7-.4-.3 0-.7.3-1.1.4-2.4 1.3-3.8-.4-4.2-1.4zM91.2 92.2c5.4-.1 9.5-2.8 12-6.8.9-1.4.5-3.6-2.2-2.7-3 1.2-6.4 1.9-9.8 1.9-3.5 0-6.8-.7-9.8-1.9-2.7-.9-3 1.3-2.2 2.7 2.5 4 6.6 6.7 12 6.8zm0 89.4c14.1 0 25.7-11.4 25.7-26.1 0-2.9-.8-6.5-1.8-9-3.2-7.7-16.5-19.1-21.1-28.8-.6-1.5-1.6-2.2-2.7-2.2s-2.2.7-2.7 2.2c-4.5 9.7-17.9 21.2-21.1 28.8-1 2.5-1.8 6.1-1.8 9-.2 14.7 11.4 26.1 25.5 26.1zm139.9-82h-7.2c-1.5 0-2.8 1.2-2.8 2.8V147c0 1.5 1.2 2.8 2.8 2.8h7.2c1.5 0 2.8-1.2 2.8-2.8v-44.6c0-1.5-1.3-2.8-2.8-2.8zm10.8 2.2v45.7c0 1.2 1 2.2 2.2 2.2h7.5c1.2 0 2.2-1 2.2-2.2v-27l17.3 28.2c.4.6 1.1 1 1.9 1h8.2c1.2 0 2.2-1 2.2-2.2v-45.7c0-1.2-1-2.2-2.2-2.2h-7.4c-1.2 0-2.2 1-2.2 2.2v25.5l-16.5-26.7c-.4-.6-1.1-1-1.9-1h-9.1c-1.2 0-2.2 1-2.2 2.2zm76.5 46.7c.4.7 1.1 1.2 2 1.2h8.3c1.7 0 2.8-1.8 2-3.3l-14.4-27.1 12.3-16.1c1.1-1.5.1-3.6-1.8-3.6h-8.5c-.7 0-1.4.3-1.8.9l-12.8 17.2v-15.8c0-1.2-1-2.2-2.2-2.2h-7.6c-1.2 0-2.2 1-2.2 2.2v45.7c0 1.2 1 2.2 2.2 2.2h7.6c1.2 0 2.2-1 2.2-2.2v-13.8l4-5.4 10.7 20.1zM284 83.8c11.4 0 20.1-6.7 20.1-18.7V35.3c0-1.2-1-2.2-2.2-2.2h-7.5c-1.2 0-2.2 1-2.2 2.2v30.2c0 4.5-4.1 6.9-8.2 6.9-4 0-8.1-2.4-8.1-6.9V35.3c0-1.2-1-2.2-2.2-2.2h-7.6c-1.2 0-2.2 1-2.2 2.2V65c0 12 8.7 18.8 20.1 18.8zm25.5-7.3c4.2 4.1 9.6 7.3 18.3 7.3 11.6 0 18.3-7.8 18.3-16.4 0-9.9-7.9-13.1-14.6-15.1-4.9-1.5-9.2-2.4-9.2-5.4 0-2.3 1.8-3.8 5.3-3.8 2.7 0 4.8 1 7.1 2.8.9.7 2.1 1 3.3.1l5.5-4.2c1.1-.8 1.2-2.5.1-3.4-3.6-3.4-8.5-6-16-6-10.3 0-17.4 6.6-17.4 15.3 0 9.9 7.7 12.6 14.3 14.5 4.9 1.4 9.2 2.5 9.2 5.6 0 2.5-2.3 4.6-5.9 4.6-3.1 0-6.2-1.3-8.8-3.7-.9-.8-2.1-1.1-3.1-.4l-6.3 5c-.9.7-1 2.2-.1 3.2zm100.8 7.3c-14.3 0-25.7-11.5-25.6-25.7 0-14.2 11.3-25.7 25.6-25.7S436 43.9 436 58.1s-11.3 25.7-25.7 25.7zm0-11.6c8 0 13.9-6.4 14-14.2 0-7.9-6.1-14.3-14-14.3s-13.8 6.4-13.8 14.3c0 7.8 5.8 14.2 13.8 14.2zM237.4 83.8c9.8 0 17.5-4.9 22-12.1.7-1.1.3-2.6-.8-3.2l-7.1-3.8c-1.1-.6-2.3-.2-3 .8-2.3 3.7-6 6.3-11.2 6.3-8 0-13.4-6.2-13.4-13.9 0-7.8 5.6-14 13.5-14 4.7 0 8.3 2 10.6 5.4.7 1 2 1.3 3 .7l6.7-4.2c1.1-.7 1.4-2.2.6-3.2-4.7-6.3-12.2-10.4-21-10.4-14.8 0-25.7 11.1-25.7 25.7.1 14.4 10.3 25.9 25.8 25.9zm123.4-3c0 1.2 1 2.2 2.2 2.2h7.2c1.2 0 2.2-1 2.2-2.2V44.4h9.7c1.2 0 2.2-1 2.2-2.2v-7c0-1.2-1-2.2-2.2-2.2h-31.2c-1.2 0-2.2 1-2.2 2.2v7c0 1.2 1 2.2 2.2 2.2h9.8v36.4h.1zm106.5-14.4l10.3-14.3v28.7c0 1.2 1 2.2 2.2 2.2h7.5c1.2 0 2.2-1 2.2-2.2V35.2c0-1.2-1-2.2-2.2-2.2h-8.6c-.7 0-1.4.3-1.8.9L466 49.5c-.2.2-.4.4-.7.4-.3 0-.5-.2-.7-.4l-10.9-15.6c-.4-.6-1.1-.9-1.8-.9h-8.6c-1.2 0-2.2 1-2.2 2.2v45.6c0 1.2 1 2.2 2.2 2.2h7.5c1.2 0 2.2-1 2.2-2.2V52.1l10.3 14.3c.6.8 1.3 1.2 2 1.2s1.5-.4 2-1.2z" fill="#FA3C00"/></svg>