<svg viewBox="0 0 81 48" xmlns="http://www.w3.org/2000/svg"><g id="Product-Summary---Deskop" stroke="none" stroke-width="1" fill="none" fill-rule="evenodd"><g id="LBP---Product-Summary---Default" transform="translate(-483 -1317)" fill="#E6772F"><g id="noun_150071_cc-copy" transform="translate(483 1317)"><g id="Group"><path d="M38.415 25.705c.296 1.368-.492 2.487-1.753 2.487h-2.285l-.208 2.539-1.122 14.146c-.112 1.396-1.16 2.538-2.33 2.538h-4.259c-1.17 0-2.219-1.143-2.33-2.538l-1.122-14.146-.213-2.54H20.61c-1.206 0-1.953-1.118-1.655-2.486l2.262-10.442c.297-1.369 1.683-2.488 3.082-2.488h8.771c1.398 0 2.784 1.12 3.08 2.488l2.265 10.442m-4.66-20.083A5.074 5.074 0 0028.684.545a5.074 5.074 0 00-5.07 5.077 5.075 5.075 0 005.07 5.078 5.076 5.076 0 005.073-5.078m29.217 29.365L57.18 15.264c-.292-1.37-1.649-2.49-3.01-2.49h-3.344c-1.397 0-2.778 1.122-3.066 2.493l-5.686 19.717c-.285 1.37.622 2.493 2.02 2.493h3.307l.187 2.537.385 4.865c.112 1.396 1.16 2.538 2.33 2.538h4.258c1.174 0 2.222-1.143 2.333-2.538l.384-4.865.2-2.537h3.488c1.399 0 2.3-1.122 2.007-2.49M57.596 5.622A5.074 5.074 0 0052.525.545a5.073 5.073 0 00-5.071 5.077 5.074 5.074 0 005.07 5.078c2.801 0 5.072-2.273 5.072-5.078m23.122 25.75l-1.672-7.717c-.22-1.011-1.244-1.84-2.276-1.84h-6.485c-1.032 0-2.058.828-2.275 1.84l-1.672 7.716c-.217 1.013.332 1.84 1.223 1.84h1.613l.157 1.876.83 10.453c.083 1.032.858 1.876 1.723 1.876h3.145c.868 0 1.64-.845 1.723-1.876l.829-10.453.154-1.877h1.687c.933 0 1.514-.826 1.296-1.839m-3.444-14.843a3.75 3.75 0 00-3.749-3.753 3.75 3.75 0 00-3.745 3.753 3.749 3.749 0 003.745 3.753 3.748 3.748 0 003.749-3.753M15.585 38.321l-4.278-14.576c-.22-1.011-1.22-1.84-2.227-1.84H6.608c-1.033 0-2.051.829-2.265 1.843L.142 38.32c-.214 1.01.46 1.84 1.492 1.84h2.445l.138 1.875.282 3.595c.082 1.031.859 1.875 1.725 1.875H9.37c.865 0 1.642-.845 1.72-1.875l.29-3.595.143-1.876h2.58c1.032 0 1.701-.826 1.482-1.838m-2.558-23.206l-1.578.465c-.453-1.564-1.877-2.712-3.585-2.712-1.707 0-3.13 1.148-3.583 2.712l-1.579-.465c-.197-.043-.358.088-.358.287V17.831c0 .204.16.333.358.292l1.58-.457c.455 1.56 1.878 2.707 3.581 2.707 1.705 0 3.128-1.147 3.582-2.707l1.582.457c.197.041.358-.088.358-.292V15.402c0-.2-.161-.33-.358-.287" id="Shape"/></g></g></g></g></svg>