<svg id="_33-TTARP_copy" data-name="33-TTARP copy" xmlns="http://www.w3.org/2000/svg" viewBox="0 0 39 39" fill="#fa3c00"><title>ttarp-chat</title><circle class="cls-1" cx="13.7" cy="16.5" r="1"></circle><path class="cls-1" d="M27,15v1.8a6,6,0,0,1,1.4,3.6,6.3,6.3,0,0,1-3.3,5.3V28l-2.3-1.5-1.7.2a6.7,6.7,0,0,1-3.8-1.3H15.4a7.3,7.3,0,0,0,5.7,2.5h1.6L26.3,30V26.3a7.2,7.2,0,0,0,3.3-5.9A6.5,6.5,0,0,0,27,15Z"></path><circle class="cls-1" cx="21.5" cy="16.5" r="1"></circle><path class="cls-1" d="M15.7,23.9l2.2.2a7.6,7.6,0,0,0,7.9-7.7c0-4.1-4-7.5-7.9-7.5s-8.5,3.4-8.5,7.5a7.6,7.6,0,0,0,2.6,6v3.7Zm-5-7.4c0-3.4,3.1-6.2,7.2-6.2s6.6,2.8,6.6,6.2a6.2,6.2,0,0,1-6.6,6.3l-2.4-.2-2.2,1.5V21.8A6.8,6.8,0,0,1,10.7,16.5Z"></path><circle class="cls-1" cx="17.6" cy="16.5" r="1"></circle></svg>