<svg width="31" height="29" viewBox="0 0 31 29" xmlns="http://www.w3.org/2000/svg" xmlns:xlink="http://www.w3.org/1999/xlink"><defs><ellipse id="a" cx="7.196" cy="1.658" rx="1.661" ry="1.658"/><ellipse id="b" cx="7.196" cy="19.342" rx="1.661" ry="1.658"/><ellipse id="c" cx="22.696" cy="10.5" rx="1.661" ry="1.658"/></defs><g fill="none" fill-rule="evenodd"><path d="M1 16.158h29c.552 0 1-.448 1-1v-1.316c0-.552-.448-1-1-1H1c-.552 0-1 .448-1 1v1.316c0 .552.448 1 1 1zM1 25h29c.552 0 1-.448 1-1v-1.316c0-.552-.448-1-1-1H1c-.552 0-1 .448-1 1V24c0 .552.448 1 1 1zM0 5v1.316c0 .552.448 1 1 1h29c.552 0 1-.448 1-1V5c0-.552-.448-1-1-1H1c-.552 0-1 .448-1 1z" fill="#4a4a4a" fill-rule="nonzero"/><g transform="translate(0 4)"><use fill="#FFF" xlink:href="#a"/><ellipse stroke="#4a4a4a" stroke-width="3.3" cx="7.196" cy="1.658" rx="3.311" ry="3.308"/></g><g transform="translate(0 4)"><use fill="#FFF" xlink:href="#b"/><ellipse stroke="#4a4a4a" stroke-width="3.3" cx="7.196" cy="19.342" rx="3.311" ry="3.308"/></g><g transform="translate(0 4)"><use fill="#FFF" xlink:href="#c"/><ellipse stroke="#4a4a4a" stroke-width="3.3" cx="22.696" cy="10.5" rx="3.311" ry="3.308"/></g></g></svg>
