<svg fill="#fff" xmlns="http://www.w3.org/2000/svg" xml:space="preserve" viewBox="0 0 16 24" y="0" x="0" id="Layer_1" version="1.1"><g transform="translate(-3.853 -.065)" id="g846"><path id="path844" d="M17.1 16.7c-.2.5-.4.9-.8 1.3-.3.4-.8.8-1.3 1-.5.3-1.1.5-1.7.6V22h-2.2v-2.4c-1-.2-1.8-.5-2.6-.9-.8-.5-1.4-1.1-1.9-1.7l2-1.6c.3.5.7 1 1.1 1.3.4.3.9.6 1.4.8v-5.1c-.5-.2-1-.3-1.4-.5-.5-.2-.9-.5-1.3-.8-.4-.3-.7-.7-.9-1.2-.2-.5-.3-1-.3-1.7 0-.5.1-1 .3-1.4.2-.5.5-.9.8-1.2.3-.4.8-.7 1.2-.9.5-.2 1-.4 1.6-.5V2h2.2v2.2c.8.1 1.5.4 2.1.7.6.4 1.1.8 1.6 1.4l-1.9 1.4c-.1-.4-.4-.7-.7-.9-.3-.3-.7-.4-1.1-.6v4.5l1.5.6c.5.2.9.5 1.3.8.4.3.7.8.9 1.2.2.5.4 1.1.4 1.7 0 .7-.1 1.2-.3 1.7zM10 9.3c.3.3.7.5 1.2.7V6.2c-.5.2-.9.4-1.2.7-.3.4-.5.8-.5 1.3s.2.8.5 1.1zm4.6 4.6c-.3-.3-.8-.6-1.3-.8v4.4c.6-.2 1-.5 1.3-.9.3-.4.5-.9.5-1.4 0-.6-.2-1-.5-1.3z"></path></g></svg>