<!-- Generator: Adobe Illustrator 22.1.0, SVG Export Plug-In . SVG Version: 6.00 Build 0)  -->
<svg version="1.0" id="Layer_1" xmlns="http://www.w3.org/2000/svg" xmlns:xlink="http://www.w3.org/1999/xlink" x="0px" y="0px" viewBox="0 0 48 48" style="enable-background:new 0 0 48 48;" xml:space="preserve">
<style type="text/css">
</style>
<g>
	<g>
		<g>
			<path class="st0" d="M34.804,6.852h-21.44c-0.43,0-0.781,0.35-0.781,0.781v15.134c0,0.017,0.002,0.031,0.005,0.041
				c0.004,0.084,0.02,0.166,0.049,0.244c0.005,0.016,0.012,0.032,0.022,0.046c0.034,0.072,0.08,0.137,0.136,0.197
				c0.02,0.02,0.041,0.039,0.056,0.051c0.049,0.044,0.104,0.081,0.157,0.107c0.025,0.014,0.052,0.027,0.076,0.036
				c0.087,0.036,0.18,0.056,0.279,0.058h21.44c0.43,0,0.781-0.35,0.781-0.781V7.633C35.585,7.203,35.235,6.852,34.804,6.852z
				 M29.208,12.126l-6.385,6.385l-2.601-2.601c-0.304-0.304-0.799-0.304-1.104,0l-4.973,4.973V8.413h19.879v7.425l-3.712-3.712
				C30.007,11.822,29.512,11.822,29.208,12.126z M24.091,21.986h-8.843l4.421-4.421L24.091,21.986z M34.024,18.046v3.941h-7.724
				l-2.372-2.372l5.833-5.833L34.024,18.046z"></path>
			<path class="st0" d="M22.823,9.375c-1.126,0-2.042,0.916-2.042,2.042c0,1.126,0.916,2.042,2.042,2.042
				c1.126,0,2.042-0.916,2.042-2.042C24.865,10.291,23.949,9.375,22.823,9.375z M23.304,11.417c0,0.265-0.216,0.481-0.481,0.481
				c-0.265,0-0.481-0.216-0.481-0.481c0-0.265,0.216-0.481,0.481-0.481C23.088,10.936,23.304,11.151,23.304,11.417z"></path>
		</g>
	</g>
	<path class="st0" d="M44.8,12.8c-0.27,0.004-0.539,0.043-0.8,0.114V2.4C44,1.075,42.925,0,41.6,0H6.4C5.075,0,4,1.075,4,2.4v10.514
		c-0.261-0.072-0.53-0.11-0.8-0.114C1.433,12.8,0,14.233,0,16v19.2c0,0.182,0.062,0.358,0.175,0.5L3.2,39.481V40H2.4
		c-0.442,0-0.8,0.358-0.8,0.8v6.4c0,0.442,0.358,0.8,0.8,0.8h12.8c0.442,0,0.8-0.358,0.8-0.8v-6.4c0-0.442-0.358-0.8-0.8-0.8h-0.8
		v-5.56c0-0.14-0.036-0.278-0.106-0.4l-2.102-3.64h23.618l-2.102,3.641c-0.07,0.122-0.107,0.26-0.106,0.4V40h-0.8
		c-0.442,0-0.8,0.358-0.8,0.8v6.4c0,0.442,0.358,0.8,0.8,0.8h12.8c0.442,0,0.8-0.358,0.8-0.8v-6.4c0-0.442-0.358-0.8-0.8-0.8h-0.8
		v-0.519l3.025-3.781C47.938,35.558,48,35.382,48,35.2V16C48,14.233,46.567,12.8,44.8,12.8L44.8,12.8z M6.4,1.6h35.2
		c0.442,0,0.8,0.358,0.8,0.8v20.51c-0.132-0.02-0.266-0.03-0.4-0.03c-0.412,0.001-0.819,0.083-1.2,0.24V4.8
		c0-0.884-0.716-1.6-1.6-1.6H8.8c-0.884,0-1.6,0.716-1.6,1.6v18.32c-0.381-0.158-0.788-0.239-1.2-0.24c-0.134,0-0.268,0.01-0.4,0.03
		V2.4C5.6,1.958,5.958,1.6,6.4,1.6z M9.42,25.6L8.8,24.527V4.8h21.974h1.657h6.77v19.727L38.581,25.6H9.42z M14.4,46.4H3.2v-4.8
		h11.2V46.4z M12.8,40h-8v-0.8c0-0.182-0.062-0.358-0.175-0.5L1.6,34.919V16c0-0.884,0.716-1.6,1.6-1.6
		c0.281,0.001,0.558,0.076,0.8,0.219V23.6c-1.225,0.986-1.552,2.715-0.773,4.08l4.576,7.92l1.386-0.8l-4.576-7.92
		c-0.438-0.763-0.18-1.737,0.579-2.182c0.16-0.094,0.337-0.157,0.521-0.185C5.808,24.496,5.904,24.485,6,24.48
		c0.284,0,0.563,0.077,0.806,0.224c0.211,0.12,0.39,0.288,0.522,0.491c0.015,0.022,0.042,0.064,0.059,0.086l5.412,9.373V40z
		 M20.091,28.8h-8.824l-0.924-1.6h8.786h6.605h11.92l-0.924,1.6H24.431H20.091z M44.8,46.4H33.6v-4.8h11.2V46.4z M46.4,34.919
		L43.375,38.7c-0.113,0.142-0.175,0.318-0.175,0.5V40h-8v-5.346l5.423-9.392c0.017-0.021,0.033-0.043,0.048-0.066
		c0.299-0.442,0.795-0.709,1.329-0.715c0.096,0.005,0.192,0.016,0.287,0.033c0.18,0.027,0.354,0.088,0.511,0.179
		c0.765,0.443,1.028,1.421,0.589,2.188l-4.576,7.92l1.386,0.8l4.576-7.92c0.78-1.365,0.452-3.094-0.773-4.08v-8.981
		c0.242-0.143,0.519-0.219,0.8-0.219c0.884,0,1.6,0.716,1.6,1.6V34.919z"></path>
</g>
</svg>